# xmcd
#
# Track frame offsets: 
#        151
#        22082
#        35209
#        50661
#        61681
#        71200
#        85525
#        97908
#        110959
#        124293
#        136071
#        146804
#        162987
#
# Disc length: 2325 seconds
#
# Revision: 0
# Processed by: cddbd v1.5PL3 Copyright (c) Steve Scherf et al.
# Submitted via: ExactAudioCopy v0.95a4
#
DISCID=c009130d
DTITLE=John Trudell - But This Isn't El Salvador
DYEAR=1987
DGENRE=Native American
TTITLE0=But This Isn't El Salvador (Butler Honoring)
TTITLE1=Born 18 (All Tribes)
TTITLE2=The Newspaper Stand (Round Dance)
TTITLE3=Isn't My Life (Elk Song)
TTITLE4=Instant Heat (Old Springs Owl)
TTITLE5=Thicker Than Blood - For Billy Joe (Chief's Song)
TTITLE6=Beauty In A Fade (49 Wait For Me)
TTITLE7=One Side Of The Face (1855 War Dance)
TTITLE8=What Happens (Sarcee Song)
TTITLE9=At Some Point (Umatilla Song)
TTITLE10=Woman Treat (Wide Spot Owl)
TTITLE11=Co-optation (49 Crazy Horse)
TTITLE12=Song Of The Trees (Warm Springs Honoring)
EXTD=
EXTT0=
EXTT1=
EXTT2=
EXTT3=
EXTT4=
EXTT5=
EXTT6=
EXTT7=
EXTT8=
EXTT9=
EXTT10=
EXTT11=
EXTT12=
PLAYORDER=
